<?xml version="1.0" standalone="no"?>
<!DOCTYPE svg PUBLIC "-//W3C//DTD SVG 20010904//EN"
 "http://www.w3.org/TR/2001/REC-SVG-20010904/DTD/svg10.dtd">
<svg version="1.0" xmlns="http://www.w3.org/2000/svg"
 width="491.000000pt" height="514.000000pt" viewBox="0 0 491.000000 514.000000"
 preserveAspectRatio="xMidYMid meet">

<g transform="translate(0.000000,514.000000) scale(0.100000,-0.100000)"
fill="#000000" stroke="none">
<path d="M3499 5050 c-77 -12 -208 -62 -280 -106 -126 -76 -249 -214 -309
-348 l-30 -66 -878 0 c-977 0 -952 2 -1010 -64 -19 -22 -35 -55 -42 -88 -8
-39 -10 -591 -8 -2093 l3 -2040 22 -42 c15 -28 39 -52 70 -70 l48 -28 1395 -3
c1016 -2 1410 1 1450 9 67 14 132 72 149 134 8 29 11 518 11 1710 l0 1670 65
58 c110 99 202 249 242 397 25 92 23 287 -5 391 -69 256 -265 464 -516 548
-80 26 -117 33 -209 36 -62 2 -137 0 -168 -5z m326 -144 c122 -44 179 -79 270
-171 134 -134 184 -246 192 -435 9 -209 -43 -346 -187 -491 -135 -135 -285
-199 -469 -199 -110 0 -195 20 -300 72 -110 52 -228 167 -284 275 -124 238
-96 541 69 733 92 108 206 183 338 221 82 25 296 21 371 -5z m-980 -639 c1
-155 15 -222 75 -344 78 -159 202 -284 365 -366 180 -90 436 -101 626 -27 l49
20 0 -1640 c0 -1627 0 -1640 -20 -1660 -20 -20 -33 -20 -1427 -20 -1295 0
-1408 1 -1425 17 -17 15 -18 93 -18 2066 0 1894 1 2052 17 2069 15 17 56 18
887 18 l871 0 0 -133z"/>
<path d="M3860 4604 c-19 -8 -95 -74 -167 -147 l-133 -132 -57 57 c-32 31 -72
63 -90 72 -58 29 -155 14 -206 -32 -55 -50 -73 -152 -38 -220 11 -20 82 -98
158 -173 108 -107 147 -139 178 -148 50 -14 60 -14 110 0 33 9 79 50 254 222
135 134 220 227 232 252 45 97 6 199 -96 246 -48 22 -98 23 -145 3z m108 -130
c15 -10 22 -25 22 -46 0 -28 -25 -57 -198 -230 -168 -169 -202 -198 -227 -198
-25 0 -51 21 -157 127 -134 134 -147 156 -111 195 32 36 62 23 154 -67 57 -56
94 -85 109 -85 16 0 71 47 185 160 97 96 170 160 181 160 11 0 30 -7 42 -16z"/>
<path d="M2040 3330 c-11 -11 -20 -29 -20 -40 0 -11 9 -29 20 -40 19 -19 33
-20 480 -20 447 0 461 1 480 20 11 11 20 29 20 40 0 11 -9 29 -20 40 -19 19
-33 20 -480 20 -447 0 -461 -1 -480 -20z"/>
<path d="M1477 2832 c-22 -24 -21 -65 1 -85 27 -25 106 -23 132 3 46 46 9 100
-68 100 -35 0 -54 -5 -65 -18z"/>
<path d="M1806 2834 c-9 -8 -16 -28 -16 -44 0 -64 -52 -60 866 -60 821 0 834
0 854 20 11 11 20 29 20 40 0 11 -9 29 -20 40 -20 20 -33 20 -854 20 -745 0
-836 -2 -850 -16z"/>
<path d="M1500 2529 c-45 -18 -54 -65 -20 -99 43 -43 150 -16 150 39 0 49 -74
84 -130 60z"/>
<path d="M1830 2529 c-30 -12 -40 -26 -40 -61 0 -60 -36 -58 872 -58 815 0
828 0 848 20 25 25 25 51 1 81 l-19 24 -819 2 c-524 1 -827 -2 -843 -8z"/>
<path d="M1493 2210 c-44 -18 -41 -94 4 -111 77 -29 149 15 129 79 -12 36 -82
53 -133 32z"/>
<path d="M1810 2202 c-14 -11 -22 -29 -22 -47 0 -18 8 -36 22 -47 21 -17 66
-18 841 -18 604 0 825 3 844 12 46 21 46 85 -1 106 -18 9 -247 12 -843 12
-775 0 -820 -1 -841 -18z"/>
<path d="M1480 1880 c-20 -20 -26 -55 -12 -77 24 -38 120 -39 147 0 35 50 2
97 -70 97 -32 0 -51 -6 -65 -20z"/>
<path d="M1812 1884 c-26 -18 -30 -65 -7 -88 9 -8 30 -18 48 -21 18 -3 394 -5
835 -3 l804 3 19 24 c24 30 24 56 -1 81 -20 20 -33 20 -848 20 -733 0 -830 -2
-850 -16z"/>
<path d="M1500 1579 c-45 -18 -54 -65 -20 -99 43 -43 150 -16 150 39 0 49 -74
84 -130 60z"/>
<path d="M1830 1579 c-30 -12 -40 -26 -40 -61 0 -60 -36 -58 872 -58 815 0
828 0 848 20 25 25 25 51 1 81 l-19 24 -819 2 c-524 1 -827 -2 -843 -8z"/>
<path d="M1493 1260 c-44 -18 -41 -94 4 -111 77 -29 149 15 129 79 -12 36 -82
53 -133 32z"/>
<path d="M1812 1254 c-15 -10 -22 -25 -22 -49 0 -69 -47 -65 862 -65 603 0
824 3 843 12 46 21 46 85 -1 106 -18 9 -247 12 -842 12 -724 0 -820 -2 -840
-16z"/>
</g>
</svg>
